<?xml version="1.0" encoding="UTF-8" standalone="no"?>
<!DOCTYPE svg PUBLIC "-//W3C//DTD SVG 1.1//EN"
 "http://www.w3.org/Graphics/SVG/1.1/DTD/svg11.dtd">
<!-- Generated by graphviz version 2.47.0 (20210316.0004)
 -->
<!-- Title: dependencies Pages: 1 -->
<svg width="504pt" height="211pt"
 viewBox="0.00 0.00 504.00 211.00" xmlns="http://www.w3.org/2000/svg" xmlns:xlink="http://www.w3.org/1999/xlink">
<g id="graph0" class="graph" transform="scale(1 1) rotate(0) translate(4 207)">
<title>dependencies</title>
<polygon fill="white" stroke="transparent" points="-4,4 -4,-207 500,-207 500,4 -4,4"/>
<text text-anchor="start" x="227.01" y="-42.4" font-family="sans-serif" font-weight="bold" font-size="14.00">Legend</text>
<polygon fill="#ffffb3" stroke="transparent" points="14,-10 14,-30 34,-30 34,-10 14,-10"/>
<text text-anchor="start" x="37.63" y="-15.4" font-family="sans-serif" font-size="14.00"> &#160;Declarations</text>
<polygon fill="#8dd3c7" stroke="transparent" points="127,-10 127,-30 147,-30 147,-10 127,-10"/>
<text text-anchor="start" x="150.73" y="-15.4" font-family="sans-serif" font-size="14.00"> &#160;Module</text>
<polygon fill="#80b1d3" stroke="transparent" points="213,-10 213,-30 233,-30 233,-10 213,-10"/>
<text text-anchor="start" x="236.78" y="-15.4" font-family="sans-serif" font-size="14.00"> &#160;Bootstrap</text>
<polygon fill="#fdb462" stroke="transparent" points="310,-10 310,-30 330,-30 330,-10 310,-10"/>
<text text-anchor="start" x="333.67" y="-15.4" font-family="sans-serif" font-size="14.00"> &#160;Providers</text>
<polygon fill="#fb8072" stroke="transparent" points="406,-10 406,-30 426,-30 426,-10 406,-10"/>
<text text-anchor="start" x="429.73" y="-15.4" font-family="sans-serif" font-size="14.00"> &#160;Exports</text>
<g id="clust1" class="cluster">
<title>cluster_EventosPageModule</title>
<polygon fill="none" stroke="black" stroke-dasharray="1,5" points="42.5,-70 42.5,-195 453.5,-195 453.5,-70 42.5,-70"/>
</g>
<g id="clust2" class="cluster">
<title>cluster_EventosPageModule_declarations</title>
<polygon fill="none" stroke="black" points="250.5,-78 250.5,-130 445.5,-130 445.5,-78 250.5,-78"/>
</g>
<g id="clust5" class="cluster">
<title>cluster_EventosPageModule_imports</title>
<polygon fill="none" stroke="black" points="50.5,-78 50.5,-130 242.5,-130 242.5,-78 50.5,-78"/>
</g>
<!-- DatasPipe -->
<g id="node1" class="node">
<title>DatasPipe</title>
<polygon fill="#ffffb3" stroke="black" points="437.76,-122 365.24,-122 365.24,-86 437.76,-86 437.76,-122"/>
<text text-anchor="middle" x="401.5" y="-99.8" font-family="Times,serif" font-size="14.00">DatasPipe</text>
</g>
<!-- EventosPageModule -->
<g id="node3" class="node">
<title>EventosPageModule</title>
<polygon fill="#8dd3c7" stroke="black" points="368.36,-187 365.36,-191 344.36,-191 341.36,-187 236.64,-187 236.64,-151 368.36,-151 368.36,-187"/>
<text text-anchor="middle" x="302.5" y="-164.8" font-family="Times,serif" font-size="14.00">EventosPageModule</text>
</g>
<!-- DatasPipe&#45;&gt;EventosPageModule -->
<g id="edge1" class="edge">
<title>DatasPipe&#45;&gt;EventosPageModule</title>
<path fill="none" stroke="black" d="M365.12,-104C359.7,-104 355.89,-104 355.89,-104 355.89,-104 355.89,-140.89 355.89,-140.89"/>
<polygon fill="black" stroke="black" points="352.39,-140.89 355.89,-150.89 359.39,-140.89 352.39,-140.89"/>
</g>
<!-- EventosPage -->
<g id="node2" class="node">
<title>EventosPage</title>
<polygon fill="#ffffb3" stroke="black" points="346.81,-122 258.19,-122 258.19,-86 346.81,-86 346.81,-122"/>
<text text-anchor="middle" x="302.5" y="-99.8" font-family="Times,serif" font-size="14.00">EventosPage</text>
</g>
<!-- EventosPage&#45;&gt;EventosPageModule -->
<g id="edge2" class="edge">
<title>EventosPage&#45;&gt;EventosPageModule</title>
<path fill="none" stroke="black" d="M302.5,-122.11C302.5,-122.11 302.5,-140.99 302.5,-140.99"/>
<polygon fill="black" stroke="black" points="299,-140.99 302.5,-150.99 306,-140.99 299,-140.99"/>
</g>
<!-- EventosPageRoutingModule -->
<g id="node4" class="node">
<title>EventosPageRoutingModule</title>
<polygon fill="#8dd3c7" stroke="black" points="234.98,-122 231.98,-126 210.98,-126 207.98,-122 58.02,-122 58.02,-86 234.98,-86 234.98,-122"/>
<text text-anchor="middle" x="146.5" y="-99.8" font-family="Times,serif" font-size="14.00">EventosPageRoutingModule</text>
</g>
<!-- EventosPageRoutingModule&#45;&gt;EventosPageModule -->
<g id="edge3" class="edge">
<title>EventosPageRoutingModule&#45;&gt;EventosPageModule</title>
<path fill="none" stroke="black" d="M235.08,-104C242.62,-104 247.46,-104 247.46,-104 247.46,-104 247.46,-140.89 247.46,-140.89"/>
<polygon fill="black" stroke="black" points="243.96,-140.89 247.46,-150.89 250.96,-140.89 243.96,-140.89"/>
</g>
</g>
</svg>
