<?xml version="1.0" encoding="UTF-8" standalone="no"?>
<!DOCTYPE svg PUBLIC "-//W3C//DTD SVG 1.1//EN"
 "http://www.w3.org/Graphics/SVG/1.1/DTD/svg11.dtd">
<!-- Generated by graphviz version 2.47.0 (20210316.0004)
 -->
<!-- Title: dependencies Pages: 1 -->
<svg width="1030pt" height="284pt"
 viewBox="0.00 0.00 1030.00 284.00" xmlns="http://www.w3.org/2000/svg" xmlns:xlink="http://www.w3.org/1999/xlink">
<g id="graph0" class="graph" transform="scale(1 1) rotate(0) translate(4 280)">
<title>dependencies</title>
<polygon fill="white" stroke="transparent" points="-4,4 -4,-280 1026,-280 1026,4 -4,4"/>
<text text-anchor="start" x="490.01" y="-42.4" font-family="sans-serif" font-weight="bold" font-size="14.00">Legend</text>
<polygon fill="#ffffb3" stroke="transparent" points="277,-10 277,-30 297,-30 297,-10 277,-10"/>
<text text-anchor="start" x="300.63" y="-15.4" font-family="sans-serif" font-size="14.00"> &#160;Declarations</text>
<polygon fill="#8dd3c7" stroke="transparent" points="390,-10 390,-30 410,-30 410,-10 390,-10"/>
<text text-anchor="start" x="413.73" y="-15.4" font-family="sans-serif" font-size="14.00"> &#160;Module</text>
<polygon fill="#80b1d3" stroke="transparent" points="476,-10 476,-30 496,-30 496,-10 476,-10"/>
<text text-anchor="start" x="499.78" y="-15.4" font-family="sans-serif" font-size="14.00"> &#160;Bootstrap</text>
<polygon fill="#fdb462" stroke="transparent" points="573,-10 573,-30 593,-30 593,-10 573,-10"/>
<text text-anchor="start" x="596.67" y="-15.4" font-family="sans-serif" font-size="14.00"> &#160;Providers</text>
<polygon fill="#fb8072" stroke="transparent" points="669,-10 669,-30 689,-30 689,-10 669,-10"/>
<text text-anchor="start" x="692.73" y="-15.4" font-family="sans-serif" font-size="14.00"> &#160;Exports</text>
<g id="clust1" class="cluster">
<title>cluster_AppModule</title>
<polygon fill="none" stroke="black" stroke-dasharray="1,5" points="8,-70 8,-268 1014,-268 1014,-70 8,-70"/>
</g>
<g id="clust7" class="cluster">
<title>cluster_AppModule_providers</title>
<polygon fill="none" stroke="black" points="298,-78 298,-130 1006,-130 1006,-78 298,-78"/>
</g>
<g id="clust2" class="cluster">
<title>cluster_AppModule_declarations</title>
<polygon fill="none" stroke="black" points="168,-78 168,-130 290,-130 290,-78 168,-78"/>
</g>
<g id="clust4" class="cluster">
<title>cluster_AppModule_imports</title>
<polygon fill="none" stroke="black" points="16,-78 16,-130 160,-130 160,-78 16,-78"/>
</g>
<g id="clust6" class="cluster">
<title>cluster_AppModule_bootstrap</title>
<polygon fill="none" stroke="black" points="396,-208 396,-260 520,-260 520,-208 396,-208"/>
</g>
<!-- AppComponent -->
<g id="node1" class="node">
<title>AppComponent</title>
<polygon fill="#ffffb3" stroke="black" points="281.94,-122 176.06,-122 176.06,-86 281.94,-86 281.94,-122"/>
<text text-anchor="middle" x="229" y="-99.8" font-family="Times,serif" font-size="14.00">AppComponent</text>
</g>
<!-- AppModule -->
<g id="node2" class="node">
<title>AppModule</title>
<polygon fill="#8dd3c7" stroke="black" points="499.66,-187 496.66,-191 475.66,-191 472.66,-187 416.34,-187 416.34,-151 499.66,-151 499.66,-187"/>
<text text-anchor="middle" x="458" y="-164.8" font-family="Times,serif" font-size="14.00">AppModule</text>
</g>
<!-- AppComponent&#45;&gt;AppModule -->
<g id="edge1" class="edge">
<title>AppComponent&#45;&gt;AppModule</title>
<path fill="none" stroke="black" d="M229,-122.02C229,-139.37 229,-163 229,-163 229,-163 406.26,-163 406.26,-163"/>
<polygon fill="black" stroke="black" points="406.26,-166.5 416.26,-163 406.26,-159.5 406.26,-166.5"/>
</g>
<!-- AppComponent  -->
<g id="node4" class="node">
<title>AppComponent </title>
<polygon fill="#80b1d3" stroke="black" points="512.44,-252 403.56,-252 403.56,-216 512.44,-216 512.44,-252"/>
<text text-anchor="middle" x="458" y="-229.8" font-family="Times,serif" font-size="14.00">AppComponent </text>
</g>
<!-- AppModule&#45;&gt;AppComponent  -->
<g id="edge3" class="edge">
<title>AppModule&#45;&gt;AppComponent </title>
<path fill="none" stroke="black" stroke-dasharray="1,5" d="M458,-187.11C458,-187.11 458,-205.99 458,-205.99"/>
<polygon fill="black" stroke="black" points="454.5,-205.99 458,-215.99 461.5,-205.99 454.5,-205.99"/>
</g>
<!-- AppRoutingModule -->
<g id="node3" class="node">
<title>AppRoutingModule</title>
<polygon fill="#8dd3c7" stroke="black" points="152.27,-122 149.27,-126 128.27,-126 125.27,-122 23.73,-122 23.73,-86 152.27,-86 152.27,-122"/>
<text text-anchor="middle" x="88" y="-99.8" font-family="Times,serif" font-size="14.00">AppRoutingModule</text>
</g>
<!-- AppRoutingModule&#45;&gt;AppModule -->
<g id="edge2" class="edge">
<title>AppRoutingModule&#45;&gt;AppModule</title>
<path fill="none" stroke="black" d="M88,-122.28C88,-143.32 88,-175 88,-175 88,-175 406.28,-175 406.28,-175"/>
<polygon fill="black" stroke="black" points="406.28,-178.5 416.28,-175 406.28,-171.5 406.28,-178.5"/>
</g>
<!-- ArmazenamentoService -->
<g id="node5" class="node">
<title>ArmazenamentoService</title>
<ellipse fill="#fdb462" stroke="black" cx="894" cy="-104" rx="103.61" ry="18"/>
<text text-anchor="middle" x="894" y="-99.8" font-family="Times,serif" font-size="14.00">ArmazenamentoService</text>
</g>
<!-- ArmazenamentoService&#45;&gt;AppModule -->
<g id="edge4" class="edge">
<title>ArmazenamentoService&#45;&gt;AppModule</title>
<path fill="none" stroke="black" d="M894,-122.28C894,-143.32 894,-175 894,-175 894,-175 509.81,-175 509.81,-175"/>
<polygon fill="black" stroke="black" points="509.81,-171.5 499.81,-175 509.81,-178.5 509.81,-171.5"/>
</g>
<!-- OverlayService -->
<g id="node6" class="node">
<title>OverlayService</title>
<ellipse fill="#fdb462" stroke="black" cx="701" cy="-104" rx="71.18" ry="18"/>
<text text-anchor="middle" x="701" y="-99.8" font-family="Times,serif" font-size="14.00">OverlayService</text>
</g>
<!-- OverlayService&#45;&gt;AppModule -->
<g id="edge5" class="edge">
<title>OverlayService&#45;&gt;AppModule</title>
<path fill="none" stroke="black" d="M701,-122.02C701,-139.37 701,-163 701,-163 701,-163 509.77,-163 509.77,-163"/>
<polygon fill="black" stroke="black" points="509.77,-159.5 499.77,-163 509.77,-166.5 509.77,-159.5"/>
</g>
<!-- ServidorService -->
<g id="node7" class="node">
<title>ServidorService</title>
<ellipse fill="#fdb462" stroke="black" cx="539" cy="-104" rx="73.49" ry="18"/>
<text text-anchor="middle" x="539" y="-99.8" font-family="Times,serif" font-size="14.00">ServidorService</text>
</g>
<!-- ServidorService&#45;&gt;AppModule -->
<g id="edge6" class="edge">
<title>ServidorService&#45;&gt;AppModule</title>
<path fill="none" stroke="black" d="M482.79,-115.62C482.79,-115.62 482.79,-140.85 482.79,-140.85"/>
<polygon fill="black" stroke="black" points="479.29,-140.85 482.79,-150.85 486.29,-140.85 479.29,-140.85"/>
</g>
<!-- UsuarioService -->
<g id="node8" class="node">
<title>UsuarioService</title>
<ellipse fill="#fdb462" stroke="black" cx="377" cy="-104" rx="70.62" ry="18"/>
<text text-anchor="middle" x="377" y="-99.8" font-family="Times,serif" font-size="14.00">UsuarioService</text>
</g>
<!-- UsuarioService&#45;&gt;AppModule -->
<g id="edge7" class="edge">
<title>UsuarioService&#45;&gt;AppModule</title>
<path fill="none" stroke="black" d="M431.87,-115.32C431.87,-115.32 431.87,-140.94 431.87,-140.94"/>
<polygon fill="black" stroke="black" points="428.37,-140.94 431.87,-150.94 435.37,-140.94 428.37,-140.94"/>
</g>
</g>
</svg>
