<?xml version="1.0" encoding="UTF-8" standalone="no"?>
<!DOCTYPE svg PUBLIC "-//W3C//DTD SVG 1.1//EN"
 "http://www.w3.org/Graphics/SVG/1.1/DTD/svg11.dtd">
<!-- Generated by graphviz version 2.47.0 (20210316.0004)
 -->
<!-- Title: dependencies Pages: 1 -->
<svg width="1030pt" height="284pt"
 viewBox="0.00 0.00 1030.00 284.00" xmlns="http://www.w3.org/2000/svg" xmlns:xlink="http://www.w3.org/1999/xlink">
<g id="graph0" class="graph" transform="scale(1 1) rotate(0) translate(4 280)">
<title>dependencies</title>
<polygon fill="white" stroke="transparent" points="-4,4 -4,-280 1026,-280 1026,4 -4,4"/>
<text text-anchor="start" x="490.01" y="-42.4" font-family="sans-serif" font-weight="bold" font-size="14.00">Legend</text>
<polygon fill="#ffffb3" stroke="transparent" points="277,-10 277,-30 297,-30 297,-10 277,-10"/>
<text text-anchor="start" x="300.63" y="-15.4" font-family="sans-serif" font-size="14.00"> &#160;Declarations</text>
<polygon fill="#8dd3c7" stroke="transparent" points="390,-10 390,-30 410,-30 410,-10 390,-10"/>
<text text-anchor="start" x="413.73" y="-15.4" font-family="sans-serif" font-size="14.00"> &#160;Module</text>
<polygon fill="#80b1d3" stroke="transparent" points="476,-10 476,-30 496,-30 496,-10 476,-10"/>
<text text-anchor="start" x="499.78" y="-15.4" font-family="sans-serif" font-size="14.00"> &#160;Bootstrap</text>
<polygon fill="#fdb462" stroke="transparent" points="573,-10 573,-30 593,-30 593,-10 573,-10"/>
<text text-anchor="start" x="596.67" y="-15.4" font-family="sans-serif" font-size="14.00"> &#160;Providers</text>
<polygon fill="#fb8072" stroke="transparent" points="669,-10 669,-30 689,-30 689,-10 669,-10"/>
<text text-anchor="start" x="692.73" y="-15.4" font-family="sans-serif" font-size="14.00"> &#160;Exports</text>
<g id="clust1" class="cluster">
<title>cluster_AppModule</title>
<polygon fill="none" stroke="black" stroke-dasharray="1,5" points="8,-70 8,-268 1014,-268 1014,-70 8,-70"/>
</g>
<g id="clust4" class="cluster">
<title>cluster_AppModule_imports</title>
<polygon fill="none" stroke="black" points="862,-78 862,-130 1006,-130 1006,-78 862,-78"/>
</g>
<g id="clust6" class="cluster">
<title>cluster_AppModule_bootstrap</title>
<polygon fill="none" stroke="black" points="453,-208 453,-260 577,-260 577,-208 453,-208"/>
</g>
<g id="clust2" class="cluster">
<title>cluster_AppModule_declarations</title>
<polygon fill="none" stroke="black" points="732,-78 732,-130 854,-130 854,-78 732,-78"/>
</g>
<g id="clust7" class="cluster">
<title>cluster_AppModule_providers</title>
<polygon fill="none" stroke="black" points="16,-78 16,-130 724,-130 724,-78 16,-78"/>
</g>
<!-- AppComponent -->
<g id="node1" class="node">
<title>AppComponent</title>
<polygon fill="#ffffb3" stroke="black" points="845.94,-122 740.06,-122 740.06,-86 845.94,-86 845.94,-122"/>
<text text-anchor="middle" x="793" y="-99.8" font-family="Times,serif" font-size="14.00">AppComponent</text>
</g>
<!-- AppModule -->
<g id="node2" class="node">
<title>AppModule</title>
<polygon fill="#8dd3c7" stroke="black" points="556.66,-187 553.66,-191 532.66,-191 529.66,-187 473.34,-187 473.34,-151 556.66,-151 556.66,-187"/>
<text text-anchor="middle" x="515" y="-164.8" font-family="Times,serif" font-size="14.00">AppModule</text>
</g>
<!-- AppComponent&#45;&gt;AppModule -->
<g id="edge1" class="edge">
<title>AppComponent&#45;&gt;AppModule</title>
<path fill="none" stroke="black" d="M793,-122.02C793,-139.37 793,-163 793,-163 793,-163 566.92,-163 566.92,-163"/>
<polygon fill="black" stroke="black" points="566.92,-159.5 556.92,-163 566.92,-166.5 566.92,-159.5"/>
</g>
<!-- AppComponent  -->
<g id="node4" class="node">
<title>AppComponent </title>
<polygon fill="#80b1d3" stroke="black" points="569.44,-252 460.56,-252 460.56,-216 569.44,-216 569.44,-252"/>
<text text-anchor="middle" x="515" y="-229.8" font-family="Times,serif" font-size="14.00">AppComponent </text>
</g>
<!-- AppModule&#45;&gt;AppComponent  -->
<g id="edge3" class="edge">
<title>AppModule&#45;&gt;AppComponent </title>
<path fill="none" stroke="black" stroke-dasharray="1,5" d="M515,-187.11C515,-187.11 515,-205.99 515,-205.99"/>
<polygon fill="black" stroke="black" points="511.5,-205.99 515,-215.99 518.5,-205.99 511.5,-205.99"/>
</g>
<!-- AppRoutingModule -->
<g id="node3" class="node">
<title>AppRoutingModule</title>
<polygon fill="#8dd3c7" stroke="black" points="998.27,-122 995.27,-126 974.27,-126 971.27,-122 869.73,-122 869.73,-86 998.27,-86 998.27,-122"/>
<text text-anchor="middle" x="934" y="-99.8" font-family="Times,serif" font-size="14.00">AppRoutingModule</text>
</g>
<!-- AppRoutingModule&#45;&gt;AppModule -->
<g id="edge2" class="edge">
<title>AppRoutingModule&#45;&gt;AppModule</title>
<path fill="none" stroke="black" d="M934,-122.28C934,-143.32 934,-175 934,-175 934,-175 566.71,-175 566.71,-175"/>
<polygon fill="black" stroke="black" points="566.71,-171.5 556.71,-175 566.71,-178.5 566.71,-171.5"/>
</g>
<!-- ArmazenamentoService -->
<g id="node5" class="node">
<title>ArmazenamentoService</title>
<ellipse fill="#fdb462" stroke="black" cx="612" cy="-104" rx="103.61" ry="18"/>
<text text-anchor="middle" x="612" y="-99.8" font-family="Times,serif" font-size="14.00">ArmazenamentoService</text>
</g>
<!-- ArmazenamentoService&#45;&gt;AppModule -->
<g id="edge4" class="edge">
<title>ArmazenamentoService&#45;&gt;AppModule</title>
<path fill="none" stroke="black" d="M532.51,-115.62C532.51,-115.62 532.51,-140.85 532.51,-140.85"/>
<polygon fill="black" stroke="black" points="529.01,-140.85 532.51,-150.85 536.01,-140.85 529.01,-140.85"/>
</g>
<!-- OverlayService -->
<g id="node6" class="node">
<title>OverlayService</title>
<ellipse fill="#fdb462" stroke="black" cx="419" cy="-104" rx="71.18" ry="18"/>
<text text-anchor="middle" x="419" y="-99.8" font-family="Times,serif" font-size="14.00">OverlayService</text>
</g>
<!-- OverlayService&#45;&gt;AppModule -->
<g id="edge5" class="edge">
<title>OverlayService&#45;&gt;AppModule</title>
<path fill="none" stroke="black" d="M481.63,-112.77C481.63,-112.77 481.63,-140.8 481.63,-140.8"/>
<polygon fill="black" stroke="black" points="478.13,-140.8 481.63,-150.8 485.13,-140.8 478.13,-140.8"/>
</g>
<!-- ServidorService -->
<g id="node7" class="node">
<title>ServidorService</title>
<ellipse fill="#fdb462" stroke="black" cx="257" cy="-104" rx="73.49" ry="18"/>
<text text-anchor="middle" x="257" y="-99.8" font-family="Times,serif" font-size="14.00">ServidorService</text>
</g>
<!-- ServidorService&#45;&gt;AppModule -->
<g id="edge6" class="edge">
<title>ServidorService&#45;&gt;AppModule</title>
<path fill="none" stroke="black" d="M257,-122.02C257,-139.37 257,-163 257,-163 257,-163 463.26,-163 463.26,-163"/>
<polygon fill="black" stroke="black" points="463.26,-166.5 473.26,-163 463.26,-159.5 463.26,-166.5"/>
</g>
<!-- UsuarioService -->
<g id="node8" class="node">
<title>UsuarioService</title>
<ellipse fill="#fdb462" stroke="black" cx="95" cy="-104" rx="70.62" ry="18"/>
<text text-anchor="middle" x="95" y="-99.8" font-family="Times,serif" font-size="14.00">UsuarioService</text>
</g>
<!-- UsuarioService&#45;&gt;AppModule -->
<g id="edge7" class="edge">
<title>UsuarioService&#45;&gt;AppModule</title>
<path fill="none" stroke="black" d="M95,-122.28C95,-143.32 95,-175 95,-175 95,-175 463.19,-175 463.19,-175"/>
<polygon fill="black" stroke="black" points="463.19,-178.5 473.19,-175 463.19,-171.5 463.19,-178.5"/>
</g>
</g>
</svg>
