<?xml version="1.0" encoding="UTF-8" standalone="no"?>
<!DOCTYPE svg PUBLIC "-//W3C//DTD SVG 1.1//EN"
 "http://www.w3.org/Graphics/SVG/1.1/DTD/svg11.dtd">
<!-- Generated by graphviz version 2.47.0 (20210316.0004)
 -->
<!-- Title: dependencies Pages: 1 -->
<svg width="2670pt" height="284pt"
 viewBox="0.00 0.00 2670.00 284.00" xmlns="http://www.w3.org/2000/svg" xmlns:xlink="http://www.w3.org/1999/xlink">
<g id="graph0" class="graph" transform="scale(1 1) rotate(0) translate(4 280)">
<title>dependencies</title>
<polygon fill="white" stroke="transparent" points="-4,4 -4,-280 2666,-280 2666,4 -4,4"/>
<text text-anchor="start" x="1310.01" y="-42.4" font-family="sans-serif" font-weight="bold" font-size="14.00">Legend</text>
<polygon fill="#ffffb3" stroke="transparent" points="1097,-10 1097,-30 1117,-30 1117,-10 1097,-10"/>
<text text-anchor="start" x="1120.63" y="-15.4" font-family="sans-serif" font-size="14.00"> &#160;Declarations</text>
<polygon fill="#8dd3c7" stroke="transparent" points="1210,-10 1210,-30 1230,-30 1230,-10 1210,-10"/>
<text text-anchor="start" x="1233.73" y="-15.4" font-family="sans-serif" font-size="14.00"> &#160;Module</text>
<polygon fill="#80b1d3" stroke="transparent" points="1296,-10 1296,-30 1316,-30 1316,-10 1296,-10"/>
<text text-anchor="start" x="1319.78" y="-15.4" font-family="sans-serif" font-size="14.00"> &#160;Bootstrap</text>
<polygon fill="#fdb462" stroke="transparent" points="1393,-10 1393,-30 1413,-30 1413,-10 1393,-10"/>
<text text-anchor="start" x="1416.67" y="-15.4" font-family="sans-serif" font-size="14.00"> &#160;Providers</text>
<polygon fill="#fb8072" stroke="transparent" points="1489,-10 1489,-30 1509,-30 1509,-10 1489,-10"/>
<text text-anchor="start" x="1512.73" y="-15.4" font-family="sans-serif" font-size="14.00"> &#160;Exports</text>
<g id="clust1" class="cluster">
<title>cluster_AppModule</title>
<polygon fill="none" stroke="black" stroke-dasharray="1,5" points="8,-70 8,-268 1014,-268 1014,-70 8,-70"/>
</g>
<g id="clust2" class="cluster">
<title>cluster_AppModule_declarations</title>
<polygon fill="none" stroke="black" points="884,-78 884,-130 1006,-130 1006,-78 884,-78"/>
</g>
<g id="clust4" class="cluster">
<title>cluster_AppModule_imports</title>
<polygon fill="none" stroke="black" points="732,-78 732,-130 876,-130 876,-78 732,-78"/>
</g>
<g id="clust6" class="cluster">
<title>cluster_AppModule_bootstrap</title>
<polygon fill="none" stroke="black" points="453,-208 453,-260 577,-260 577,-208 453,-208"/>
</g>
<g id="clust7" class="cluster">
<title>cluster_AppModule_providers</title>
<polygon fill="none" stroke="black" points="16,-78 16,-130 724,-130 724,-78 16,-78"/>
</g>
<g id="clust14" class="cluster">
<title>cluster_HomePageModule</title>
<polygon fill="none" stroke="black" stroke-dasharray="1,5" points="1022,-70 1022,-195 1322,-195 1322,-70 1022,-70"/>
</g>
<g id="clust15" class="cluster">
<title>cluster_HomePageModule_declarations</title>
<polygon fill="none" stroke="black" points="1220,-78 1220,-130 1314,-130 1314,-78 1220,-78"/>
</g>
<g id="clust17" class="cluster">
<title>cluster_HomePageModule_imports</title>
<polygon fill="none" stroke="black" points="1030,-78 1030,-130 1212,-130 1212,-78 1030,-78"/>
</g>
<g id="clust27" class="cluster">
<title>cluster_LoginPageModule</title>
<polygon fill="none" stroke="black" stroke-dasharray="1,5" points="1330,-70 1330,-195 1628,-195 1628,-70 1330,-70"/>
</g>
<g id="clust28" class="cluster">
<title>cluster_LoginPageModule_declarations</title>
<polygon fill="none" stroke="black" points="1528,-78 1528,-130 1620,-130 1620,-78 1528,-78"/>
</g>
<g id="clust30" class="cluster">
<title>cluster_LoginPageModule_imports</title>
<polygon fill="none" stroke="black" points="1338,-78 1338,-130 1520,-130 1520,-78 1338,-78"/>
</g>
<g id="clust40" class="cluster">
<title>cluster_MyMobiConfPageModule</title>
<polygon fill="none" stroke="black" stroke-dasharray="1,5" points="1636,-70 1636,-195 2022,-195 2022,-70 1636,-70"/>
</g>
<g id="clust41" class="cluster">
<title>cluster_MyMobiConfPageModule_declarations</title>
<polygon fill="none" stroke="black" points="1878,-78 1878,-130 2014,-130 2014,-78 1878,-78"/>
</g>
<g id="clust43" class="cluster">
<title>cluster_MyMobiConfPageModule_imports</title>
<polygon fill="none" stroke="black" points="1644,-78 1644,-130 1870,-130 1870,-78 1644,-78"/>
</g>
<g id="clust53" class="cluster">
<title>cluster_SignupPageModule</title>
<polygon fill="none" stroke="black" stroke-dasharray="1,5" points="2030,-70 2030,-195 2340,-195 2340,-70 2030,-70"/>
</g>
<g id="clust54" class="cluster">
<title>cluster_SignupPageModule_declarations</title>
<polygon fill="none" stroke="black" points="2234,-78 2234,-130 2332,-130 2332,-78 2234,-78"/>
</g>
<g id="clust56" class="cluster">
<title>cluster_SignupPageModule_imports</title>
<polygon fill="none" stroke="black" points="2038,-78 2038,-130 2226,-130 2226,-78 2038,-78"/>
</g>
<g id="clust66" class="cluster">
<title>cluster_Teste2PageModule</title>
<polygon fill="none" stroke="black" stroke-dasharray="1,5" points="2348,-70 2348,-195 2654,-195 2654,-70 2348,-70"/>
</g>
<g id="clust67" class="cluster">
<title>cluster_Teste2PageModule_declarations</title>
<polygon fill="none" stroke="black" points="2550,-78 2550,-130 2646,-130 2646,-78 2550,-78"/>
</g>
<g id="clust69" class="cluster">
<title>cluster_Teste2PageModule_imports</title>
<polygon fill="none" stroke="black" points="2356,-78 2356,-130 2542,-130 2542,-78 2356,-78"/>
</g>
<!-- AppComponent -->
<g id="node1" class="node">
<title>AppComponent</title>
<polygon fill="#ffffb3" stroke="black" points="997.94,-122 892.06,-122 892.06,-86 997.94,-86 997.94,-122"/>
<text text-anchor="middle" x="945" y="-99.8" font-family="Times,serif" font-size="14.00">AppComponent</text>
</g>
<!-- AppModule -->
<g id="node2" class="node">
<title>AppModule</title>
<polygon fill="#8dd3c7" stroke="black" points="556.66,-187 553.66,-191 532.66,-191 529.66,-187 473.34,-187 473.34,-151 556.66,-151 556.66,-187"/>
<text text-anchor="middle" x="515" y="-164.8" font-family="Times,serif" font-size="14.00">AppModule</text>
</g>
<!-- AppComponent&#45;&gt;AppModule -->
<g id="edge1" class="edge">
<title>AppComponent&#45;&gt;AppModule</title>
<path fill="none" stroke="black" d="M945,-122.28C945,-143.32 945,-175 945,-175 945,-175 567.01,-175 567.01,-175"/>
<polygon fill="black" stroke="black" points="567.01,-171.5 557.01,-175 567.01,-178.5 567.01,-171.5"/>
</g>
<!-- AppComponent  -->
<g id="node4" class="node">
<title>AppComponent </title>
<polygon fill="#80b1d3" stroke="black" points="569.44,-252 460.56,-252 460.56,-216 569.44,-216 569.44,-252"/>
<text text-anchor="middle" x="515" y="-229.8" font-family="Times,serif" font-size="14.00">AppComponent </text>
</g>
<!-- AppModule&#45;&gt;AppComponent  -->
<g id="edge3" class="edge">
<title>AppModule&#45;&gt;AppComponent </title>
<path fill="none" stroke="black" stroke-dasharray="1,5" d="M515,-187.11C515,-187.11 515,-205.99 515,-205.99"/>
<polygon fill="black" stroke="black" points="511.5,-205.99 515,-215.99 518.5,-205.99 511.5,-205.99"/>
</g>
<!-- AppRoutingModule -->
<g id="node3" class="node">
<title>AppRoutingModule</title>
<polygon fill="#8dd3c7" stroke="black" points="868.27,-122 865.27,-126 844.27,-126 841.27,-122 739.73,-122 739.73,-86 868.27,-86 868.27,-122"/>
<text text-anchor="middle" x="804" y="-99.8" font-family="Times,serif" font-size="14.00">AppRoutingModule</text>
</g>
<!-- AppRoutingModule&#45;&gt;AppModule -->
<g id="edge2" class="edge">
<title>AppRoutingModule&#45;&gt;AppModule</title>
<path fill="none" stroke="black" d="M804,-122.02C804,-139.37 804,-163 804,-163 804,-163 566.71,-163 566.71,-163"/>
<polygon fill="black" stroke="black" points="566.71,-159.5 556.71,-163 566.71,-166.5 566.71,-159.5"/>
</g>
<!-- ArmazenamentoService -->
<g id="node5" class="node">
<title>ArmazenamentoService</title>
<ellipse fill="#fdb462" stroke="black" cx="612" cy="-104" rx="103.61" ry="18"/>
<text text-anchor="middle" x="612" y="-99.8" font-family="Times,serif" font-size="14.00">ArmazenamentoService</text>
</g>
<!-- ArmazenamentoService&#45;&gt;AppModule -->
<g id="edge4" class="edge">
<title>ArmazenamentoService&#45;&gt;AppModule</title>
<path fill="none" stroke="black" d="M532.51,-115.62C532.51,-115.62 532.51,-140.85 532.51,-140.85"/>
<polygon fill="black" stroke="black" points="529.01,-140.85 532.51,-150.85 536.01,-140.85 529.01,-140.85"/>
</g>
<!-- OverlayService -->
<g id="node6" class="node">
<title>OverlayService</title>
<ellipse fill="#fdb462" stroke="black" cx="419" cy="-104" rx="71.18" ry="18"/>
<text text-anchor="middle" x="419" y="-99.8" font-family="Times,serif" font-size="14.00">OverlayService</text>
</g>
<!-- OverlayService&#45;&gt;AppModule -->
<g id="edge5" class="edge">
<title>OverlayService&#45;&gt;AppModule</title>
<path fill="none" stroke="black" d="M481.63,-112.77C481.63,-112.77 481.63,-140.8 481.63,-140.8"/>
<polygon fill="black" stroke="black" points="478.13,-140.8 481.63,-150.8 485.13,-140.8 478.13,-140.8"/>
</g>
<!-- ServidorService -->
<g id="node7" class="node">
<title>ServidorService</title>
<ellipse fill="#fdb462" stroke="black" cx="257" cy="-104" rx="73.49" ry="18"/>
<text text-anchor="middle" x="257" y="-99.8" font-family="Times,serif" font-size="14.00">ServidorService</text>
</g>
<!-- ServidorService&#45;&gt;AppModule -->
<g id="edge6" class="edge">
<title>ServidorService&#45;&gt;AppModule</title>
<path fill="none" stroke="black" d="M257,-122.02C257,-139.37 257,-163 257,-163 257,-163 463.26,-163 463.26,-163"/>
<polygon fill="black" stroke="black" points="463.26,-166.5 473.26,-163 463.26,-159.5 463.26,-166.5"/>
</g>
<!-- UsuarioService -->
<g id="node8" class="node">
<title>UsuarioService</title>
<ellipse fill="#fdb462" stroke="black" cx="95" cy="-104" rx="70.62" ry="18"/>
<text text-anchor="middle" x="95" y="-99.8" font-family="Times,serif" font-size="14.00">UsuarioService</text>
</g>
<!-- UsuarioService&#45;&gt;AppModule -->
<g id="edge7" class="edge">
<title>UsuarioService&#45;&gt;AppModule</title>
<path fill="none" stroke="black" d="M95,-122.28C95,-143.32 95,-175 95,-175 95,-175 463.19,-175 463.19,-175"/>
<polygon fill="black" stroke="black" points="463.19,-178.5 473.19,-175 463.19,-171.5 463.19,-178.5"/>
</g>
<!-- HomePage -->
<g id="node9" class="node">
<title>HomePage</title>
<polygon fill="#ffffb3" stroke="black" points="1305.92,-122 1228.08,-122 1228.08,-86 1305.92,-86 1305.92,-122"/>
<text text-anchor="middle" x="1267" y="-99.8" font-family="Times,serif" font-size="14.00">HomePage</text>
</g>
<!-- HomePageModule -->
<g id="node10" class="node">
<title>HomePageModule</title>
<polygon fill="#8dd3c7" stroke="black" points="1247.47,-187 1244.47,-191 1223.47,-191 1220.47,-187 1126.53,-187 1126.53,-151 1247.47,-151 1247.47,-187"/>
<text text-anchor="middle" x="1187" y="-164.8" font-family="Times,serif" font-size="14.00">HomePageModule</text>
</g>
<!-- HomePage&#45;&gt;HomePageModule -->
<g id="edge8" class="edge">
<title>HomePage&#45;&gt;HomePageModule</title>
<path fill="none" stroke="black" d="M1237.89,-122.11C1237.89,-122.11 1237.89,-140.99 1237.89,-140.99"/>
<polygon fill="black" stroke="black" points="1234.39,-140.99 1237.89,-150.99 1241.39,-140.99 1234.39,-140.99"/>
</g>
<!-- HomePageRoutingModule -->
<g id="node11" class="node">
<title>HomePageRoutingModule</title>
<polygon fill="#8dd3c7" stroke="black" points="1204.09,-122 1201.09,-126 1180.09,-126 1177.09,-122 1037.91,-122 1037.91,-86 1204.09,-86 1204.09,-122"/>
<text text-anchor="middle" x="1121" y="-99.8" font-family="Times,serif" font-size="14.00">HomePageRoutingModule</text>
</g>
<!-- HomePageRoutingModule&#45;&gt;HomePageModule -->
<g id="edge9" class="edge">
<title>HomePageRoutingModule&#45;&gt;HomePageModule</title>
<path fill="none" stroke="black" d="M1165.28,-122.11C1165.28,-122.11 1165.28,-140.99 1165.28,-140.99"/>
<polygon fill="black" stroke="black" points="1161.78,-140.99 1165.28,-150.99 1168.78,-140.99 1161.78,-140.99"/>
</g>
<!-- LoginPage -->
<g id="node12" class="node">
<title>LoginPage</title>
<polygon fill="#ffffb3" stroke="black" points="1612.16,-122 1535.84,-122 1535.84,-86 1612.16,-86 1612.16,-122"/>
<text text-anchor="middle" x="1574" y="-99.8" font-family="Times,serif" font-size="14.00">LoginPage</text>
</g>
<!-- LoginPageModule -->
<g id="node13" class="node">
<title>LoginPageModule</title>
<polygon fill="#8dd3c7" stroke="black" points="1554.2,-187 1551.2,-191 1530.2,-191 1527.2,-187 1433.8,-187 1433.8,-151 1554.2,-151 1554.2,-187"/>
<text text-anchor="middle" x="1494" y="-164.8" font-family="Times,serif" font-size="14.00">LoginPageModule</text>
</g>
<!-- LoginPage&#45;&gt;LoginPageModule -->
<g id="edge10" class="edge">
<title>LoginPage&#45;&gt;LoginPageModule</title>
<path fill="none" stroke="black" d="M1544.89,-122.11C1544.89,-122.11 1544.89,-140.99 1544.89,-140.99"/>
<polygon fill="black" stroke="black" points="1541.39,-140.99 1544.89,-150.99 1548.39,-140.99 1541.39,-140.99"/>
</g>
<!-- LoginPageRoutingModule -->
<g id="node14" class="node">
<title>LoginPageRoutingModule</title>
<polygon fill="#8dd3c7" stroke="black" points="1511.82,-122 1508.82,-126 1487.82,-126 1484.82,-122 1346.18,-122 1346.18,-86 1511.82,-86 1511.82,-122"/>
<text text-anchor="middle" x="1429" y="-99.8" font-family="Times,serif" font-size="14.00">LoginPageRoutingModule</text>
</g>
<!-- LoginPageRoutingModule&#45;&gt;LoginPageModule -->
<g id="edge11" class="edge">
<title>LoginPageRoutingModule&#45;&gt;LoginPageModule</title>
<path fill="none" stroke="black" d="M1472.78,-122.11C1472.78,-122.11 1472.78,-140.99 1472.78,-140.99"/>
<polygon fill="black" stroke="black" points="1469.28,-140.99 1472.78,-150.99 1476.28,-140.99 1469.28,-140.99"/>
</g>
<!-- MyMobiConfPage -->
<g id="node15" class="node">
<title>MyMobiConfPage</title>
<polygon fill="#ffffb3" stroke="black" points="2006.49,-122 1885.51,-122 1885.51,-86 2006.49,-86 2006.49,-122"/>
<text text-anchor="middle" x="1946" y="-99.8" font-family="Times,serif" font-size="14.00">MyMobiConfPage</text>
</g>
<!-- MyMobiConfPageModule -->
<g id="node16" class="node">
<title>MyMobiConfPageModule</title>
<polygon fill="#8dd3c7" stroke="black" points="1926.04,-187 1923.04,-191 1902.04,-191 1899.04,-187 1761.96,-187 1761.96,-151 1926.04,-151 1926.04,-187"/>
<text text-anchor="middle" x="1844" y="-164.8" font-family="Times,serif" font-size="14.00">MyMobiConfPageModule</text>
</g>
<!-- MyMobiConfPage&#45;&gt;MyMobiConfPageModule -->
<g id="edge12" class="edge">
<title>MyMobiConfPage&#45;&gt;MyMobiConfPageModule</title>
<path fill="none" stroke="black" d="M1905.89,-122.11C1905.89,-122.11 1905.89,-140.99 1905.89,-140.99"/>
<polygon fill="black" stroke="black" points="1902.39,-140.99 1905.89,-150.99 1909.39,-140.99 1902.39,-140.99"/>
</g>
<!-- MyMobiConfPageRoutingModule -->
<g id="node17" class="node">
<title>MyMobiConfPageRoutingModule</title>
<polygon fill="#8dd3c7" stroke="black" points="1861.66,-122 1858.66,-126 1837.66,-126 1834.66,-122 1652.34,-122 1652.34,-86 1861.66,-86 1861.66,-122"/>
<text text-anchor="middle" x="1757" y="-99.8" font-family="Times,serif" font-size="14.00">MyMobiConfPageRoutingModule</text>
</g>
<!-- MyMobiConfPageRoutingModule&#45;&gt;MyMobiConfPageModule -->
<g id="edge13" class="edge">
<title>MyMobiConfPageRoutingModule&#45;&gt;MyMobiConfPageModule</title>
<path fill="none" stroke="black" d="M1811.78,-122.11C1811.78,-122.11 1811.78,-140.99 1811.78,-140.99"/>
<polygon fill="black" stroke="black" points="1808.28,-140.99 1811.78,-150.99 1815.28,-140.99 1808.28,-140.99"/>
</g>
<!-- SignupPage -->
<g id="node18" class="node">
<title>SignupPage</title>
<polygon fill="#ffffb3" stroke="black" points="2324.39,-122 2241.61,-122 2241.61,-86 2324.39,-86 2324.39,-122"/>
<text text-anchor="middle" x="2283" y="-99.8" font-family="Times,serif" font-size="14.00">SignupPage</text>
</g>
<!-- SignupPageModule -->
<g id="node19" class="node">
<title>SignupPageModule</title>
<polygon fill="#8dd3c7" stroke="black" points="2263.44,-187 2260.44,-191 2239.44,-191 2236.44,-187 2136.56,-187 2136.56,-151 2263.44,-151 2263.44,-187"/>
<text text-anchor="middle" x="2200" y="-164.8" font-family="Times,serif" font-size="14.00">SignupPageModule</text>
</g>
<!-- SignupPage&#45;&gt;SignupPageModule -->
<g id="edge14" class="edge">
<title>SignupPage&#45;&gt;SignupPageModule</title>
<path fill="none" stroke="black" d="M2252.39,-122.11C2252.39,-122.11 2252.39,-140.99 2252.39,-140.99"/>
<polygon fill="black" stroke="black" points="2248.89,-140.99 2252.39,-150.99 2255.89,-140.99 2248.89,-140.99"/>
</g>
<!-- SignupPageRoutingModule -->
<g id="node20" class="node">
<title>SignupPageRoutingModule</title>
<polygon fill="#8dd3c7" stroke="black" points="2217.55,-122 2214.55,-126 2193.55,-126 2190.55,-122 2046.45,-122 2046.45,-86 2217.55,-86 2217.55,-122"/>
<text text-anchor="middle" x="2132" y="-99.8" font-family="Times,serif" font-size="14.00">SignupPageRoutingModule</text>
</g>
<!-- SignupPageRoutingModule&#45;&gt;SignupPageModule -->
<g id="edge15" class="edge">
<title>SignupPageRoutingModule&#45;&gt;SignupPageModule</title>
<path fill="none" stroke="black" d="M2177.28,-122.11C2177.28,-122.11 2177.28,-140.99 2177.28,-140.99"/>
<polygon fill="black" stroke="black" points="2173.78,-140.99 2177.28,-150.99 2180.78,-140.99 2173.78,-140.99"/>
</g>
<!-- Teste2Page -->
<g id="node21" class="node">
<title>Teste2Page</title>
<polygon fill="#ffffb3" stroke="black" points="2638.03,-122 2557.97,-122 2557.97,-86 2638.03,-86 2638.03,-122"/>
<text text-anchor="middle" x="2598" y="-99.8" font-family="Times,serif" font-size="14.00">Teste2Page</text>
</g>
<!-- Teste2PageModule -->
<g id="node22" class="node">
<title>Teste2PageModule</title>
<polygon fill="#8dd3c7" stroke="black" points="2578.08,-187 2575.08,-191 2554.08,-191 2551.08,-187 2453.92,-187 2453.92,-151 2578.08,-151 2578.08,-187"/>
<text text-anchor="middle" x="2516" y="-164.8" font-family="Times,serif" font-size="14.00">Teste2PageModule</text>
</g>
<!-- Teste2Page&#45;&gt;Teste2PageModule -->
<g id="edge16" class="edge">
<title>Teste2Page&#45;&gt;Teste2PageModule</title>
<path fill="none" stroke="black" d="M2567.89,-122.11C2567.89,-122.11 2567.89,-140.99 2567.89,-140.99"/>
<polygon fill="black" stroke="black" points="2564.39,-140.99 2567.89,-150.99 2571.39,-140.99 2564.39,-140.99"/>
</g>
<!-- Teste2PageRoutingModule -->
<g id="node23" class="node">
<title>Teste2PageRoutingModule</title>
<polygon fill="#8dd3c7" stroke="black" points="2533.7,-122 2530.7,-126 2509.7,-126 2506.7,-122 2364.3,-122 2364.3,-86 2533.7,-86 2533.7,-122"/>
<text text-anchor="middle" x="2449" y="-99.8" font-family="Times,serif" font-size="14.00">Teste2PageRoutingModule</text>
</g>
<!-- Teste2PageRoutingModule&#45;&gt;Teste2PageModule -->
<g id="edge17" class="edge">
<title>Teste2PageRoutingModule&#45;&gt;Teste2PageModule</title>
<path fill="none" stroke="black" d="M2493.78,-122.11C2493.78,-122.11 2493.78,-140.99 2493.78,-140.99"/>
<polygon fill="black" stroke="black" points="2490.28,-140.99 2493.78,-150.99 2497.28,-140.99 2490.28,-140.99"/>
</g>
</g>
</svg>
